<?xml version="1.0" encoding="utf-8"?>
<!-- Generator: Adobe Illustrator 21.0.2, SVG Export Plug-In . SVG Version: 6.00 Build 0)  -->
<svg version="1.1" id="Layer_1" xmlns="http://www.w3.org/2000/svg" xmlns:xlink="http://www.w3.org/1999/xlink" x="0px" y="0px"
	 viewBox="0 0 423 448" style="enable-background:new 0 0 423 448;" xml:space="preserve">
<style type="text/css">
	.st0{fill:#F4F4F4;stroke:#777777;stroke-width:4;stroke-miterlimit:10;}
</style>
<g id="icomoon-ignore">
</g>
<path class="st0" d="M338.2,130.2c0-11.3-9.2-20.5-20.5-20.5s-20.5,9.2-20.5,20.5c0,11.3,9.2,20.5,20.5,20.5
	S338.2,141.5,338.2,130.2z M386,68.8c0,70.8-19.6,117.9-70.2,168.7c-12.4,12.2-26.4,24.7-41.6,37.5l-4.3,80.8
	c-0.2,2.1-1.5,4.3-3.4,5.5l-81.9,47.8c-1.1,0.6-2.1,0.9-3.4,0.9c-1.7,0-3.4-0.6-4.9-1.9l-13.6-13.6c-1.7-1.9-2.3-4.5-1.7-6.8
	l18.1-58.9l-59.9-59.9L60.4,287c-0.6,0.2-1.3,0.2-1.9,0.2c-1.7,0-3.6-0.6-4.9-1.9l-13.6-13.6c-2.1-2.3-2.6-5.8-1.1-8.3l47.8-81.9
	c1.3-1.9,3.4-3.2,5.5-3.4l80.8-4.3c12.8-15.1,25.4-29.2,37.5-41.6c53.3-53.1,94-70.2,168.2-70.2C382.6,62,386,65,386,68.8z"/>
</svg>
